{
	"asset":{
		"generator":"Khronos glTF Blender I/O v4.4.56",
		"version":"2.0"
	},
	"scene":0,
	"scenes":[
		{
			"name":"Scene",
			"nodes":[
				0
			]
		}
	],
	"nodes":[
		{
			"mesh":0,
			"name":"shinyfloor_five-convcol"
		}
	],
	"materials":[
		{
			"doubleSided":true,
			"name":"Material",
			"normalTexture":{
				"index":0
			},
			"pbrMetallicRoughness":{
				"baseColorFactor":[
					0.3226310610771179,
					0.24174414575099945,
					0.18896900117397308,
					1
				],
				"metallicFactor":0,
				"roughnessFactor":0.7419516444206238
			}
		}
	],
	"meshes":[
		{
			"name":"Cube.001",
			"primitives":[
				{
					"attributes":{
						"POSITION":0,
						"NORMAL":1,
						"TEXCOORD_0":2
					},
					"indices":3,
					"material":0
				}
			]
		}
	],
	"textures":[
		{
			"sampler":0,
			"source":0
		}
	],
	"images":[
		{
			"mimeType":"image/png",
			"name":"Trimsheet-Diplomat",
			"uri":"Trimsheet-Diplomat.png"
		}
	],
	"accessors":[
		{
			"bufferView":0,
			"componentType":5126,
			"count":440,
			"max":[
				5,
				1.4901161193847656e-08,
				0.5
			],
			"min":[
				0,
				-0.20000001788139343,
				-4.5
			],
			"type":"VEC3"
		},
		{
			"bufferView":1,
			"componentType":5126,
			"count":440,
			"type":"VEC3"
		},
		{
			"bufferView":2,
			"componentType":5126,
			"count":440,
			"type":"VEC2"
		},
		{
			"bufferView":3,
			"componentType":5123,
			"count":660,
			"type":"SCALAR"
		}
	],
	"bufferViews":[
		{
			"buffer":0,
			"byteLength":5280,
			"byteOffset":0,
			"target":34962
		},
		{
			"buffer":0,
			"byteLength":5280,
			"byteOffset":5280,
			"target":34962
		},
		{
			"buffer":0,
			"byteLength":3520,
			"byteOffset":10560,
			"target":34962
		},
		{
			"buffer":0,
			"byteLength":1320,
			"byteOffset":14080,
			"target":34963
		}
	],
	"samplers":[
		{
			"magFilter":9729,
			"minFilter":9987
		}
	],
	"buffers":[
		{
			"byteLength":15400,
			"uri":"shinyfloor_five-convcol.bin"
		}
	]
}
