{
	"asset":{
		"generator":"Khronos glTF Blender I/O v4.5.48",
		"version":"2.0"
	},
	"scene":0,
	"scenes":[
		{
			"name":"Scene",
			"nodes":[
				0
			]
		}
	],
	"nodes":[
		{
			"mesh":0,
			"name":"Cube"
		}
	],
	"meshes":[
		{
			"name":"Cube.001",
			"primitives":[
				{
					"attributes":{
						"POSITION":0,
						"NORMAL":1,
						"TEXCOORD_0":2
					},
					"indices":3
				}
			]
		}
	],
	"accessors":[
		{
			"bufferView":0,
			"componentType":5126,
			"count":8922,
			"max":[
				5.949131965637207,
				2.6108016967773438,
				0.6928747296333313
			],
			"min":[
				-1.7533302307128906,
				-0.17912213504314423,
				-0.6928747296333313
			],
			"type":"VEC3"
		},
		{
			"bufferView":1,
			"componentType":5126,
			"count":8922,
			"type":"VEC3"
		},
		{
			"bufferView":2,
			"componentType":5126,
			"count":8922,
			"type":"VEC2"
		},
		{
			"bufferView":3,
			"componentType":5123,
			"count":34812,
			"type":"SCALAR"
		}
	],
	"bufferViews":[
		{
			"buffer":0,
			"byteLength":107064,
			"byteOffset":0,
			"target":34962
		},
		{
			"buffer":0,
			"byteLength":107064,
			"byteOffset":107064,
			"target":34962
		},
		{
			"buffer":0,
			"byteLength":71376,
			"byteOffset":214128,
			"target":34962
		},
		{
			"buffer":0,
			"byteLength":69624,
			"byteOffset":285504,
			"target":34963
		}
	],
	"buffers":[
		{
			"byteLength":355128,
			"uri":"Cube.bin"
		}
	]
}
