{
	"asset":{
		"generator":"Khronos glTF Blender I/O v4.4.56",
		"version":"2.0"
	},
	"scene":0,
	"scenes":[
		{
			"name":"Scene",
			"nodes":[
				0
			]
		}
	],
	"nodes":[
		{
			"mesh":0,
			"name":"Cube.008",
			"translation":[
				-5.035279273986816,
				-0.2986701726913452,
				22.469318389892578
			]
		}
	],
	"meshes":[
		{
			"name":"Cube.007",
			"primitives":[
				{
					"attributes":{
						"POSITION":0,
						"NORMAL":1,
						"TEXCOORD_0":2
					},
					"indices":3
				}
			]
		}
	],
	"accessors":[
		{
			"bufferView":0,
			"componentType":5126,
			"count":714,
			"max":[
				3.608400344848633,
				2.252582311630249,
				0.6629063487052917
			],
			"min":[
				-0.6083998680114746,
				-1.0577553510665894,
				-0.9475712776184082
			],
			"type":"VEC3"
		},
		{
			"bufferView":1,
			"componentType":5126,
			"count":714,
			"type":"VEC3"
		},
		{
			"bufferView":2,
			"componentType":5126,
			"count":714,
			"type":"VEC2"
		},
		{
			"bufferView":3,
			"componentType":5123,
			"count":1788,
			"type":"SCALAR"
		}
	],
	"bufferViews":[
		{
			"buffer":0,
			"byteLength":8568,
			"byteOffset":0,
			"target":34962
		},
		{
			"buffer":0,
			"byteLength":8568,
			"byteOffset":8568,
			"target":34962
		},
		{
			"buffer":0,
			"byteLength":5712,
			"byteOffset":17136,
			"target":34962
		},
		{
			"buffer":0,
			"byteLength":3576,
			"byteOffset":22848,
			"target":34963
		}
	],
	"buffers":[
		{
			"byteLength":26424,
			"uri":"Cube_008.bin"
		}
	]
}
