{
	"asset":{
		"generator":"Khronos glTF Blender I/O v4.4.56",
		"version":"2.0"
	},
	"scene":0,
	"scenes":[
		{
			"name":"Scene",
			"nodes":[
				0
			]
		}
	],
	"nodes":[
		{
			"mesh":0,
			"name":"Cube.019-convcolonly",
			"translation":[
				-3.5352790355682373,
				4.75483512878418,
				-11.31329345703125
			]
		}
	],
	"meshes":[
		{
			"name":"Cube.014",
			"primitives":[
				{
					"attributes":{
						"POSITION":0,
						"NORMAL":1
					},
					"indices":2
				}
			]
		}
	],
	"accessors":[
		{
			"bufferView":0,
			"componentType":5126,
			"count":2236,
			"max":[
				12.677040100097656,
				5.486515045166016,
				13.753602981567383
			],
			"min":[
				-12.677480697631836,
				-8.277511596679688,
				-8.115396499633789
			],
			"type":"VEC3"
		},
		{
			"bufferView":1,
			"componentType":5126,
			"count":2236,
			"type":"VEC3"
		},
		{
			"bufferView":2,
			"componentType":5123,
			"count":4692,
			"type":"SCALAR"
		}
	],
	"bufferViews":[
		{
			"buffer":0,
			"byteLength":26832,
			"byteOffset":0,
			"target":34962
		},
		{
			"buffer":0,
			"byteLength":26832,
			"byteOffset":26832,
			"target":34962
		},
		{
			"buffer":0,
			"byteLength":9384,
			"byteOffset":53664,
			"target":34963
		}
	],
	"buffers":[
		{
			"byteLength":63048,
			"uri":"Cube_019.bin"
		}
	]
}
