{
	"asset":{
		"generator":"Khronos glTF Blender I/O v4.4.56",
		"version":"2.0"
	},
	"scene":0,
	"scenes":[
		{
			"name":"Scene",
			"nodes":[
				0
			]
		}
	],
	"nodes":[
		{
			"mesh":0,
			"name":"Cube.001-col",
			"translation":[
				-3.5352790355682373,
				-0.39867016673088074,
				26.069316864013672
			]
		}
	],
	"meshes":[
		{
			"name":"Cube.009",
			"primitives":[
				{
					"attributes":{
						"POSITION":0,
						"NORMAL":1,
						"TEXCOORD_0":2
					},
					"indices":3
				}
			]
		}
	],
	"accessors":[
		{
			"bufferView":0,
			"componentType":5126,
			"count":1076,
			"max":[
				4.720556259155273,
				1.0594353675842285,
				-0.5999982357025146
			],
			"min":[
				-4.720556259155273,
				-2.1331231594085693,
				-6.067270278930664
			],
			"type":"VEC3"
		},
		{
			"bufferView":1,
			"componentType":5126,
			"count":1076,
			"type":"VEC3"
		},
		{
			"bufferView":2,
			"componentType":5126,
			"count":1076,
			"type":"VEC2"
		},
		{
			"bufferView":3,
			"componentType":5123,
			"count":2808,
			"type":"SCALAR"
		}
	],
	"bufferViews":[
		{
			"buffer":0,
			"byteLength":12912,
			"byteOffset":0,
			"target":34962
		},
		{
			"buffer":0,
			"byteLength":12912,
			"byteOffset":12912,
			"target":34962
		},
		{
			"buffer":0,
			"byteLength":8608,
			"byteOffset":25824,
			"target":34962
		},
		{
			"buffer":0,
			"byteLength":5616,
			"byteOffset":34432,
			"target":34963
		}
	],
	"buffers":[
		{
			"byteLength":40048,
			"uri":"Cube_001.bin"
		}
	]
}
