{
	"asset":{
		"generator":"Khronos glTF Blender I/O v4.4.56",
		"version":"2.0"
	},
	"scene":0,
	"scenes":[
		{
			"name":"Scene",
			"nodes":[
				0
			]
		}
	],
	"nodes":[
		{
			"mesh":0,
			"name":"Cube.015",
			"translation":[
				-3.5352790355682373,
				-0.7986701726913452,
				-18.952423095703125
			]
		}
	],
	"materials":[
		{
			"doubleSided":true,
			"name":"wall",
			"pbrMetallicRoughness":{
				"baseColorFactor":[
					0.13427729904651642,
					0.13427862524986267,
					0.13427862524986267,
					1
				],
				"metallicFactor":0,
				"roughnessFactor":0.5
			}
		}
	],
	"meshes":[
		{
			"name":"Cube.004",
			"primitives":[
				{
					"attributes":{
						"POSITION":0,
						"NORMAL":1,
						"TEXCOORD_0":2
					},
					"indices":3,
					"material":0
				}
			]
		}
	],
	"accessors":[
		{
			"bufferView":0,
			"componentType":5126,
			"count":82,
			"max":[
				12.326929092407227,
				8.851832389831543,
				0.32400059700012207
			],
			"min":[
				-12.326929092407227,
				-1.5161681175231934,
				-0.32399946451187134
			],
			"type":"VEC3"
		},
		{
			"bufferView":1,
			"componentType":5126,
			"count":82,
			"type":"VEC3"
		},
		{
			"bufferView":2,
			"componentType":5126,
			"count":82,
			"type":"VEC2"
		},
		{
			"bufferView":3,
			"componentType":5123,
			"count":162,
			"type":"SCALAR"
		}
	],
	"bufferViews":[
		{
			"buffer":0,
			"byteLength":984,
			"byteOffset":0,
			"target":34962
		},
		{
			"buffer":0,
			"byteLength":984,
			"byteOffset":984,
			"target":34962
		},
		{
			"buffer":0,
			"byteLength":656,
			"byteOffset":1968,
			"target":34962
		},
		{
			"buffer":0,
			"byteLength":324,
			"byteOffset":2624,
			"target":34963
		}
	],
	"buffers":[
		{
			"byteLength":2948,
			"uri":"Cube_015.bin"
		}
	]
}
