{
	"asset":{
		"generator":"Khronos glTF Blender I/O v4.4.56",
		"version":"2.0"
	},
	"scene":0,
	"scenes":[
		{
			"name":"Scene",
			"nodes":[
				0
			]
		}
	],
	"nodes":[
		{
			"mesh":0,
			"name":"Cube.018-col",
			"translation":[
				-3.5352790355682373,
				-2.4986701011657715,
				-7.781979084014893
			]
		}
	],
	"materials":[
		{
			"doubleSided":true,
			"name":"Material.001",
			"pbrMetallicRoughness":{
				"baseColorFactor":[
					0.11079452931880951,
					0.11079452931880951,
					0.11079452931880951,
					1
				],
				"metallicFactor":0,
				"roughnessFactor":0.5
			}
		}
	],
	"meshes":[
		{
			"name":"Cube.018",
			"primitives":[
				{
					"attributes":{
						"POSITION":0,
						"NORMAL":1,
						"TEXCOORD_0":2
					},
					"indices":3,
					"material":0
				}
			]
		}
	],
	"accessors":[
		{
			"bufferView":0,
			"componentType":5126,
			"count":1949,
			"max":[
				12.749999046325684,
				11.817073822021484,
				11
			],
			"min":[
				-12.749999046325684,
				6.781233310699463,
				-11.515155792236328
			],
			"type":"VEC3"
		},
		{
			"bufferView":1,
			"componentType":5126,
			"count":1949,
			"type":"VEC3"
		},
		{
			"bufferView":2,
			"componentType":5126,
			"count":1949,
			"type":"VEC2"
		},
		{
			"bufferView":3,
			"componentType":5123,
			"count":4197,
			"type":"SCALAR"
		}
	],
	"bufferViews":[
		{
			"buffer":0,
			"byteLength":23388,
			"byteOffset":0,
			"target":34962
		},
		{
			"buffer":0,
			"byteLength":23388,
			"byteOffset":23388,
			"target":34962
		},
		{
			"buffer":0,
			"byteLength":15592,
			"byteOffset":46776,
			"target":34962
		},
		{
			"buffer":0,
			"byteLength":8394,
			"byteOffset":62368,
			"target":34963
		}
	],
	"buffers":[
		{
			"byteLength":70764,
			"uri":"Cube_018.bin"
		}
	]
}
