{
	"asset":{
		"generator":"Khronos glTF Blender I/O v4.4.56",
		"version":"2.0"
	},
	"scene":0,
	"scenes":[
		{
			"name":"Scene",
			"nodes":[
				0
			]
		}
	],
	"nodes":[
		{
			"mesh":0,
			"name":"Cube.002-col",
			"translation":[
				-3.5352790355682373,
				-2.6986701488494873,
				-1.82868492603302
			]
		}
	],
	"materials":[
		{
			"doubleSided":true,
			"name":"wall",
			"pbrMetallicRoughness":{
				"baseColorFactor":[
					0.13427729904651642,
					0.13427862524986267,
					0.13427862524986267,
					1
				],
				"metallicFactor":0,
				"roughnessFactor":0.5
			}
		}
	],
	"meshes":[
		{
			"name":"Cube.012",
			"primitives":[
				{
					"attributes":{
						"POSITION":0,
						"NORMAL":1,
						"TEXCOORD_0":2
					},
					"indices":3,
					"material":0
				}
			]
		}
	],
	"accessors":[
		{
			"bufferView":0,
			"componentType":5126,
			"count":1250,
			"max":[
				12.786215782165527,
				13.100000381469727,
				29.796403884887695
			],
			"min":[
				-12.786215782165527,
				-0.9630350470542908,
				-17.6314754486084
			],
			"type":"VEC3"
		},
		{
			"bufferView":1,
			"componentType":5126,
			"count":1250,
			"type":"VEC3"
		},
		{
			"bufferView":2,
			"componentType":5126,
			"count":1250,
			"type":"VEC2"
		},
		{
			"bufferView":3,
			"componentType":5123,
			"count":3336,
			"type":"SCALAR"
		}
	],
	"bufferViews":[
		{
			"buffer":0,
			"byteLength":15000,
			"byteOffset":0,
			"target":34962
		},
		{
			"buffer":0,
			"byteLength":15000,
			"byteOffset":15000,
			"target":34962
		},
		{
			"buffer":0,
			"byteLength":10000,
			"byteOffset":30000,
			"target":34962
		},
		{
			"buffer":0,
			"byteLength":6672,
			"byteOffset":40000,
			"target":34963
		}
	],
	"buffers":[
		{
			"byteLength":46672,
			"uri":"Cube_002.bin"
		}
	]
}
