{
	"asset":{
		"generator":"Khronos glTF Blender I/O v4.4.56",
		"version":"2.0"
	},
	"scene":0,
	"scenes":[
		{
			"name":"Scene",
			"nodes":[
				0
			]
		}
	],
	"nodes":[
		{
			"mesh":0,
			"name":"Cube.012",
			"rotation":[
				0,
				-0.17364798486232758,
				0,
				0.9848077893257141
			],
			"translation":[
				-11.910673141479492,
				-0.2986704111099243,
				6.09473180770874
			]
		}
	],
	"meshes":[
		{
			"name":"Cube.007",
			"primitives":[
				{
					"attributes":{
						"POSITION":0,
						"NORMAL":1,
						"TEXCOORD_0":2
					},
					"indices":3
				}
			]
		}
	],
	"accessors":[
		{
			"bufferView":0,
			"componentType":5126,
			"count":357,
			"max":[
				0.608400285243988,
				2.252582311630249,
				0.6629063487052917
			],
			"min":[
				-0.6083998680114746,
				-1.0577553510665894,
				-0.9475712776184082
			],
			"type":"VEC3"
		},
		{
			"bufferView":1,
			"componentType":5126,
			"count":357,
			"type":"VEC3"
		},
		{
			"bufferView":2,
			"componentType":5126,
			"count":357,
			"type":"VEC2"
		},
		{
			"bufferView":3,
			"componentType":5123,
			"count":894,
			"type":"SCALAR"
		}
	],
	"bufferViews":[
		{
			"buffer":0,
			"byteLength":4284,
			"byteOffset":0,
			"target":34962
		},
		{
			"buffer":0,
			"byteLength":4284,
			"byteOffset":4284,
			"target":34962
		},
		{
			"buffer":0,
			"byteLength":2856,
			"byteOffset":8568,
			"target":34962
		},
		{
			"buffer":0,
			"byteLength":1788,
			"byteOffset":11424,
			"target":34963
		}
	],
	"buffers":[
		{
			"byteLength":13212,
			"uri":"Cube_012.bin"
		}
	]
}
