{
	"asset":{
		"generator":"Khronos glTF Blender I/O v4.4.56",
		"version":"2.0"
	},
	"scene":0,
	"scenes":[
		{
			"name":"Scene",
			"nodes":[
				0
			]
		}
	],
	"nodes":[
		{
			"mesh":0,
			"name":"Plane.003-col",
			"translation":[
				-3.5352790355682373,
				-2.6986701488494873,
				-1.82868492603302
			]
		}
	],
	"materials":[
		{
			"doubleSided":true,
			"name":"Material",
			"pbrMetallicRoughness":{
				"baseColorFactor":[
					0.022177113220095634,
					0.022177113220095634,
					0.022177113220095634,
					1
				],
				"metallicFactor":0,
				"roughnessFactor":0.5399548411369324
			}
		},
		{
			"doubleSided":true,
			"name":"cargo_floor",
			"pbrMetallicRoughness":{
				"baseColorFactor":[
					0.09271028637886047,
					0.07717924565076828,
					0.07800684869289398,
					1
				],
				"metallicFactor":0,
				"roughnessFactor":0.6801242232322693
			}
		}
	],
	"meshes":[
		{
			"name":"Plane.002",
			"primitives":[
				{
					"attributes":{
						"POSITION":0,
						"NORMAL":1,
						"TEXCOORD_0":2
					},
					"indices":3,
					"material":0
				},
				{
					"attributes":{
						"POSITION":4,
						"NORMAL":5,
						"TEXCOORD_0":6
					},
					"indices":7,
					"material":1
				}
			]
		}
	],
	"accessors":[
		{
			"bufferView":0,
			"componentType":5126,
			"count":24,
			"max":[
				12.58621597290039,
				1.8561224937438965,
				1.189085602760315
			],
			"min":[
				-12.58621597290039,
				0.09999990463256836,
				-17.09800148010254
			],
			"type":"VEC3"
		},
		{
			"bufferView":1,
			"componentType":5126,
			"count":24,
			"type":"VEC3"
		},
		{
			"bufferView":2,
			"componentType":5126,
			"count":24,
			"type":"VEC2"
		},
		{
			"bufferView":3,
			"componentType":5123,
			"count":36,
			"type":"SCALAR"
		},
		{
			"bufferView":4,
			"componentType":5126,
			"count":32,
			"max":[
				12.58621597290039,
				1.8561224937438965,
				1.189085602760315
			],
			"min":[
				-12.58621597290039,
				0.07350019365549088,
				-17.09800148010254
			],
			"type":"VEC3"
		},
		{
			"bufferView":5,
			"componentType":5126,
			"count":32,
			"type":"VEC3"
		},
		{
			"bufferView":6,
			"componentType":5126,
			"count":32,
			"type":"VEC2"
		},
		{
			"bufferView":7,
			"componentType":5123,
			"count":60,
			"type":"SCALAR"
		}
	],
	"bufferViews":[
		{
			"buffer":0,
			"byteLength":288,
			"byteOffset":0,
			"target":34962
		},
		{
			"buffer":0,
			"byteLength":288,
			"byteOffset":288,
			"target":34962
		},
		{
			"buffer":0,
			"byteLength":192,
			"byteOffset":576,
			"target":34962
		},
		{
			"buffer":0,
			"byteLength":72,
			"byteOffset":768,
			"target":34963
		},
		{
			"buffer":0,
			"byteLength":384,
			"byteOffset":840,
			"target":34962
		},
		{
			"buffer":0,
			"byteLength":384,
			"byteOffset":1224,
			"target":34962
		},
		{
			"buffer":0,
			"byteLength":256,
			"byteOffset":1608,
			"target":34962
		},
		{
			"buffer":0,
			"byteLength":120,
			"byteOffset":1864,
			"target":34963
		}
	],
	"buffers":[
		{
			"byteLength":1984,
			"uri":"Plane_003.bin"
		}
	]
}
