{
	"asset":{
		"generator":"Khronos glTF Blender I/O v4.4.56",
		"version":"2.0"
	},
	"scene":0,
	"scenes":[
		{
			"name":"Scene",
			"nodes":[
				0
			]
		}
	],
	"nodes":[
		{
			"mesh":0,
			"name":"Plane-col",
			"translation":[
				-3.5352790355682373,
				-2.6986701488494873,
				-1.82868492603302
			]
		}
	],
	"materials":[
		{
			"doubleSided":true,
			"name":"Material",
			"pbrMetallicRoughness":{
				"baseColorFactor":[
					0.022177113220095634,
					0.022177113220095634,
					0.022177113220095634,
					1
				],
				"metallicFactor":0,
				"roughnessFactor":0.5399548411369324
			}
		},
		{
			"doubleSided":true,
			"name":"cargo_floor",
			"pbrMetallicRoughness":{
				"baseColorFactor":[
					0.09271028637886047,
					0.07717924565076828,
					0.07800684869289398,
					1
				],
				"metallicFactor":0,
				"roughnessFactor":0.6801242232322693
			}
		}
	],
	"meshes":[
		{
			"name":"Plane.001",
			"primitives":[
				{
					"attributes":{
						"POSITION":0,
						"NORMAL":1,
						"TEXCOORD_0":2
					},
					"indices":3,
					"material":0
				},
				{
					"attributes":{
						"POSITION":4,
						"NORMAL":5,
						"TEXCOORD_0":6
					},
					"indices":7,
					"material":1
				}
			]
		}
	],
	"accessors":[
		{
			"bufferView":0,
			"componentType":5126,
			"count":68,
			"max":[
				9.435096740722656,
				1.899999976158142,
				28.713171005249023
			],
			"min":[
				-9.435096740722656,
				0.08714040368795395,
				16.39101219177246
			],
			"type":"VEC3"
		},
		{
			"bufferView":1,
			"componentType":5126,
			"count":68,
			"type":"VEC3"
		},
		{
			"bufferView":2,
			"componentType":5126,
			"count":68,
			"type":"VEC2"
		},
		{
			"bufferView":3,
			"componentType":5123,
			"count":132,
			"type":"SCALAR"
		},
		{
			"bufferView":4,
			"componentType":5126,
			"count":18,
			"max":[
				12.601592063903809,
				1.8214248418807983,
				16.39101219177246
			],
			"min":[
				-12.601592063903809,
				1.7460010051727295,
				0.876889705657959
			],
			"type":"VEC3"
		},
		{
			"bufferView":5,
			"componentType":5126,
			"count":18,
			"type":"VEC3"
		},
		{
			"bufferView":6,
			"componentType":5126,
			"count":18,
			"type":"VEC2"
		},
		{
			"bufferView":7,
			"componentType":5123,
			"count":30,
			"type":"SCALAR"
		}
	],
	"bufferViews":[
		{
			"buffer":0,
			"byteLength":816,
			"byteOffset":0,
			"target":34962
		},
		{
			"buffer":0,
			"byteLength":816,
			"byteOffset":816,
			"target":34962
		},
		{
			"buffer":0,
			"byteLength":544,
			"byteOffset":1632,
			"target":34962
		},
		{
			"buffer":0,
			"byteLength":264,
			"byteOffset":2176,
			"target":34963
		},
		{
			"buffer":0,
			"byteLength":216,
			"byteOffset":2440,
			"target":34962
		},
		{
			"buffer":0,
			"byteLength":216,
			"byteOffset":2656,
			"target":34962
		},
		{
			"buffer":0,
			"byteLength":144,
			"byteOffset":2872,
			"target":34962
		},
		{
			"buffer":0,
			"byteLength":60,
			"byteOffset":3016,
			"target":34963
		}
	],
	"buffers":[
		{
			"byteLength":3076,
			"uri":"Plane.bin"
		}
	]
}
