{
	"asset":{
		"generator":"Khronos glTF Blender I/O v4.5.48",
		"version":"2.0"
	},
	"scene":0,
	"scenes":[
		{
			"name":"Scene",
			"nodes":[
				1
			]
		}
	],
	"nodes":[
		{
			"mesh":0,
			"name":"Text.002",
			"rotation":[
				0.5,
				0.4999999701976776,
				-0.5,
				0.5000000596046448
			],
			"translation":[
				0.22996306419372559,
				-0.039999961853027344,
				0
			]
		},
		{
			"children":[
				0
			],
			"mesh":1,
			"name":"Cube.002-col",
			"translation":[
				1.086197018623352,
				-2.880000114440918,
				0
			]
		}
	],
	"materials":[
		{
			"doubleSided":true,
			"name":"white",
			"pbrMetallicRoughness":{
				"baseColorFactor":[
					0.800000011920929,
					0.800000011920929,
					0.800000011920929,
					1
				],
				"metallicFactor":0,
				"roughnessFactor":0.5
			}
		},
		{
			"doubleSided":true,
			"name":"red",
			"pbrMetallicRoughness":{
				"baseColorFactor":[
					0.8002511262893677,
					0.07286734879016876,
					0.09372487664222717,
					1
				],
				"metallicFactor":0,
				"roughnessFactor":0.5
			}
		}
	],
	"meshes":[
		{
			"name":"Text.002",
			"primitives":[
				{
					"attributes":{
						"POSITION":0,
						"NORMAL":1,
						"TEXCOORD_0":2
					},
					"indices":3,
					"material":0
				}
			]
		},
		{
			"name":"Cube.003",
			"primitives":[
				{
					"attributes":{
						"POSITION":4,
						"NORMAL":5,
						"TEXCOORD_0":6
					},
					"indices":7,
					"material":1
				}
			]
		}
	],
	"accessors":[
		{
			"bufferView":0,
			"componentType":5126,
			"count":315,
			"max":[
				1.0339999198913574,
				0.10999996960163116,
				0.320000022649765
			],
			"min":[
				-0.9760000109672546,
				-0.10999996960163116,
				-0.4020000398159027
			],
			"type":"VEC3"
		},
		{
			"bufferView":1,
			"componentType":5126,
			"count":315,
			"type":"VEC3"
		},
		{
			"bufferView":2,
			"componentType":5126,
			"count":315,
			"type":"VEC2"
		},
		{
			"bufferView":3,
			"componentType":5123,
			"count":1248,
			"type":"SCALAR"
		},
		{
			"bufferView":4,
			"componentType":5126,
			"count":96,
			"max":[
				0.22827363014221191,
				1.1070877313613892,
				1.9476191997528076
			],
			"min":[
				-0.22827357053756714,
				-1.1070879697799683,
				-1.9476191997528076
			],
			"type":"VEC3"
		},
		{
			"bufferView":5,
			"componentType":5126,
			"count":96,
			"type":"VEC3"
		},
		{
			"bufferView":6,
			"componentType":5126,
			"count":96,
			"type":"VEC2"
		},
		{
			"bufferView":7,
			"componentType":5123,
			"count":132,
			"type":"SCALAR"
		}
	],
	"bufferViews":[
		{
			"buffer":0,
			"byteLength":3780,
			"byteOffset":0,
			"target":34962
		},
		{
			"buffer":0,
			"byteLength":3780,
			"byteOffset":3780,
			"target":34962
		},
		{
			"buffer":0,
			"byteLength":2520,
			"byteOffset":7560,
			"target":34962
		},
		{
			"buffer":0,
			"byteLength":2496,
			"byteOffset":10080,
			"target":34963
		},
		{
			"buffer":0,
			"byteLength":1152,
			"byteOffset":12576,
			"target":34962
		},
		{
			"buffer":0,
			"byteLength":1152,
			"byteOffset":13728,
			"target":34962
		},
		{
			"buffer":0,
			"byteLength":768,
			"byteOffset":14880,
			"target":34962
		},
		{
			"buffer":0,
			"byteLength":264,
			"byteOffset":15648,
			"target":34963
		}
	],
	"buffers":[
		{
			"byteLength":15912,
			"uri":"Cube_002.bin"
		}
	]
}
