{
	"asset":{
		"generator":"Khronos glTF Blender I/O v4.5.48",
		"version":"2.0"
	},
	"scene":0,
	"scenes":[
		{
			"name":"Scene",
			"nodes":[
				1
			]
		}
	],
	"nodes":[
		{
			"mesh":0,
			"name":"Text.001",
			"rotation":[
				0.5,
				0.4999999701976776,
				-0.5,
				0.5000000596046448
			],
			"translation":[
				0.22996306419372559,
				-0.019999966025352478,
				0
			]
		},
		{
			"children":[
				0
			],
			"mesh":1,
			"name":"Cube.003-col",
			"translation":[
				1.086197018623352,
				0,
				0
			]
		}
	],
	"materials":[
		{
			"doubleSided":true,
			"name":"white",
			"pbrMetallicRoughness":{
				"baseColorFactor":[
					0.800000011920929,
					0.800000011920929,
					0.800000011920929,
					1
				],
				"metallicFactor":0,
				"roughnessFactor":0.5
			}
		},
		{
			"doubleSided":true,
			"name":"deeporange",
			"pbrMetallicRoughness":{
				"baseColorFactor":[
					0.44583097100257874,
					0.08300098776817322,
					0.009339723736047745,
					1
				],
				"metallicFactor":0,
				"roughnessFactor":0.5
			}
		}
	],
	"meshes":[
		{
			"name":"Text.001",
			"primitives":[
				{
					"attributes":{
						"POSITION":0,
						"NORMAL":1,
						"TEXCOORD_0":2
					},
					"indices":3,
					"material":0
				}
			]
		},
		{
			"name":"Cube.004",
			"primitives":[
				{
					"attributes":{
						"POSITION":4,
						"NORMAL":5,
						"TEXCOORD_0":6
					},
					"indices":7,
					"material":1
				}
			]
		}
	],
	"accessors":[
		{
			"bufferView":0,
			"componentType":5126,
			"count":718,
			"max":[
				1.1245309114456177,
				0.10999996960163116,
				0.320000022649765
			],
			"min":[
				-1.059499979019165,
				-0.10999996960163116,
				-0.4020000398159027
			],
			"type":"VEC3"
		},
		{
			"bufferView":1,
			"componentType":5126,
			"count":718,
			"type":"VEC3"
		},
		{
			"bufferView":2,
			"componentType":5126,
			"count":718,
			"type":"VEC2"
		},
		{
			"bufferView":3,
			"componentType":5123,
			"count":3060,
			"type":"SCALAR"
		},
		{
			"bufferView":4,
			"componentType":5126,
			"count":96,
			"max":[
				0.22827363014221191,
				1.1070877313613892,
				1.9476191997528076
			],
			"min":[
				-0.22827357053756714,
				-1.1070877313613892,
				-1.9476191997528076
			],
			"type":"VEC3"
		},
		{
			"bufferView":5,
			"componentType":5126,
			"count":96,
			"type":"VEC3"
		},
		{
			"bufferView":6,
			"componentType":5126,
			"count":96,
			"type":"VEC2"
		},
		{
			"bufferView":7,
			"componentType":5123,
			"count":132,
			"type":"SCALAR"
		}
	],
	"bufferViews":[
		{
			"buffer":0,
			"byteLength":8616,
			"byteOffset":0,
			"target":34962
		},
		{
			"buffer":0,
			"byteLength":8616,
			"byteOffset":8616,
			"target":34962
		},
		{
			"buffer":0,
			"byteLength":5744,
			"byteOffset":17232,
			"target":34962
		},
		{
			"buffer":0,
			"byteLength":6120,
			"byteOffset":22976,
			"target":34963
		},
		{
			"buffer":0,
			"byteLength":1152,
			"byteOffset":29096,
			"target":34962
		},
		{
			"buffer":0,
			"byteLength":1152,
			"byteOffset":30248,
			"target":34962
		},
		{
			"buffer":0,
			"byteLength":768,
			"byteOffset":31400,
			"target":34962
		},
		{
			"buffer":0,
			"byteLength":264,
			"byteOffset":32168,
			"target":34963
		}
	],
	"buffers":[
		{
			"byteLength":32432,
			"uri":"Cube_003.bin"
		}
	]
}
