{
	"asset":{
		"generator":"Khronos glTF Blender I/O v4.5.48",
		"version":"2.0"
	},
	"scene":0,
	"scenes":[
		{
			"name":"Scene",
			"nodes":[
				1
			]
		}
	],
	"nodes":[
		{
			"mesh":0,
			"name":"Text",
			"rotation":[
				0.5,
				0.4999999701976776,
				-0.5,
				0.5000000596046448
			],
			"scale":[
				0.9000000357627869,
				0.9000000357627869,
				0.9000000357627869
			],
			"translation":[
				0.22996318340301514,
				0,
				0
			]
		},
		{
			"children":[
				0
			],
			"mesh":1,
			"name":"Cube.001-col",
			"translation":[
				1.086197018623352,
				2.880000114440918,
				0
			]
		}
	],
	"materials":[
		{
			"doubleSided":true,
			"name":"green",
			"pbrMetallicRoughness":{
				"baseColorFactor":[
					0.04912383854389191,
					0.8002356290817261,
					0.09636139869689941,
					1
				],
				"metallicFactor":0,
				"roughnessFactor":0.5
			}
		},
		{
			"doubleSided":true,
			"name":"turqoise",
			"pbrMetallicRoughness":{
				"baseColorFactor":[
					0,
					0.20712262392044067,
					0.16171588003635406,
					1
				],
				"metallicFactor":0,
				"roughnessFactor":0.5
			}
		}
	],
	"meshes":[
		{
			"name":"Text",
			"primitives":[
				{
					"attributes":{
						"POSITION":0,
						"NORMAL":1,
						"TEXCOORD_0":2
					},
					"indices":3,
					"material":0
				}
			]
		},
		{
			"name":"Cube.002",
			"primitives":[
				{
					"attributes":{
						"POSITION":4,
						"NORMAL":5,
						"TEXCOORD_0":6
					},
					"indices":7,
					"material":1
				}
			]
		}
	],
	"accessors":[
		{
			"bufferView":0,
			"componentType":5126,
			"count":1993,
			"max":[
				1.471500039100647,
				0.10999996960163116,
				0.3290136456489563
			],
			"min":[
				-1.4485838413238525,
				-0.10999996960163116,
				-0.4110123813152313
			],
			"type":"VEC3"
		},
		{
			"bufferView":1,
			"componentType":5126,
			"count":1993,
			"type":"VEC3"
		},
		{
			"bufferView":2,
			"componentType":5126,
			"count":1993,
			"type":"VEC2"
		},
		{
			"bufferView":3,
			"componentType":5123,
			"count":8712,
			"type":"SCALAR"
		},
		{
			"bufferView":4,
			"componentType":5126,
			"count":96,
			"max":[
				0.22827363014221191,
				1.1070879697799683,
				1.9476191997528076
			],
			"min":[
				-0.22827357053756714,
				-1.1070877313613892,
				-1.9476191997528076
			],
			"type":"VEC3"
		},
		{
			"bufferView":5,
			"componentType":5126,
			"count":96,
			"type":"VEC3"
		},
		{
			"bufferView":6,
			"componentType":5126,
			"count":96,
			"type":"VEC2"
		},
		{
			"bufferView":7,
			"componentType":5123,
			"count":132,
			"type":"SCALAR"
		}
	],
	"bufferViews":[
		{
			"buffer":0,
			"byteLength":23916,
			"byteOffset":0,
			"target":34962
		},
		{
			"buffer":0,
			"byteLength":23916,
			"byteOffset":23916,
			"target":34962
		},
		{
			"buffer":0,
			"byteLength":15944,
			"byteOffset":47832,
			"target":34962
		},
		{
			"buffer":0,
			"byteLength":17424,
			"byteOffset":63776,
			"target":34963
		},
		{
			"buffer":0,
			"byteLength":1152,
			"byteOffset":81200,
			"target":34962
		},
		{
			"buffer":0,
			"byteLength":1152,
			"byteOffset":82352,
			"target":34962
		},
		{
			"buffer":0,
			"byteLength":768,
			"byteOffset":83504,
			"target":34962
		},
		{
			"buffer":0,
			"byteLength":264,
			"byteOffset":84272,
			"target":34963
		}
	],
	"buffers":[
		{
			"byteLength":84536,
			"uri":"Cube_001.bin"
		}
	]
}
