{
	"asset":{
		"generator":"Khronos glTF Blender I/O v4.5.48",
		"version":"2.0"
	},
	"scene":0,
	"scenes":[
		{
			"name":"Scene",
			"nodes":[
				1
			]
		}
	],
	"nodes":[
		{
			"mesh":0,
			"name":"Cylinder"
		},
		{
			"children":[
				0
			],
			"mesh":1,
			"name":"Icosphere",
			"translation":[
				0,
				0.6000007390975952,
				0
			]
		}
	],
	"materials":[
		{
			"doubleSided":true,
			"name":"Metal",
			"pbrMetallicRoughness":{
				"baseColorFactor":[
					0.800000011920929,
					0.800000011920929,
					0.800000011920929,
					1
				],
				"roughnessFactor":0.2870370149612427
			}
		},
		{
			"doubleSided":true,
			"name":"Material",
			"pbrMetallicRoughness":{
				"baseColorFactor":[
					0.4974215030670166,
					0.4974215030670166,
					0.4974215030670166,
					1
				],
				"roughnessFactor":0.24074074625968933
			}
		}
	],
	"meshes":[
		{
			"name":"Cylinder.002",
			"primitives":[
				{
					"attributes":{
						"POSITION":0,
						"NORMAL":1,
						"TEXCOORD_0":2
					},
					"indices":3,
					"material":0
				}
			]
		},
		{
			"name":"Icosphere",
			"primitives":[
				{
					"attributes":{
						"POSITION":4,
						"NORMAL":5,
						"TEXCOORD_0":6
					},
					"indices":7,
					"material":1
				}
			]
		}
	],
	"accessors":[
		{
			"bufferView":0,
			"componentType":5126,
			"count":976,
			"max":[
				-0.009025231003761292,
				0.10184657573699951,
				0.10437879711389542
			],
			"min":[
				-0.447673499584198,
				-0.10184657573699951,
				-0.10437879711389542
			],
			"type":"VEC3"
		},
		{
			"bufferView":1,
			"componentType":5126,
			"count":976,
			"type":"VEC3"
		},
		{
			"bufferView":2,
			"componentType":5126,
			"count":976,
			"type":"VEC2"
		},
		{
			"bufferView":3,
			"componentType":5123,
			"count":2832,
			"type":"SCALAR"
		},
		{
			"bufferView":4,
			"componentType":5126,
			"count":111,
			"max":[
				0.3956684470176697,
				0.399501770734787,
				0.39420002698898315
			],
			"min":[
				-0.3335322141647339,
				-0.3885442018508911,
				-0.39420002698898315
			],
			"type":"VEC3"
		},
		{
			"bufferView":5,
			"componentType":5126,
			"count":111,
			"type":"VEC3"
		},
		{
			"bufferView":6,
			"componentType":5126,
			"count":111,
			"type":"VEC2"
		},
		{
			"bufferView":7,
			"componentType":5123,
			"count":312,
			"type":"SCALAR"
		}
	],
	"bufferViews":[
		{
			"buffer":0,
			"byteLength":11712,
			"byteOffset":0,
			"target":34962
		},
		{
			"buffer":0,
			"byteLength":11712,
			"byteOffset":11712,
			"target":34962
		},
		{
			"buffer":0,
			"byteLength":7808,
			"byteOffset":23424,
			"target":34962
		},
		{
			"buffer":0,
			"byteLength":5664,
			"byteOffset":31232,
			"target":34963
		},
		{
			"buffer":0,
			"byteLength":1332,
			"byteOffset":36896,
			"target":34962
		},
		{
			"buffer":0,
			"byteLength":1332,
			"byteOffset":38228,
			"target":34962
		},
		{
			"buffer":0,
			"byteLength":888,
			"byteOffset":39560,
			"target":34962
		},
		{
			"buffer":0,
			"byteLength":624,
			"byteOffset":40448,
			"target":34963
		}
	],
	"buffers":[
		{
			"byteLength":41072,
			"uri":"Icosphere.bin"
		}
	]
}
