{
	"asset":{
		"generator":"Khronos glTF Blender I/O v4.4.56",
		"version":"2.0"
	},
	"scene":0,
	"scenes":[
		{
			"name":"Scene",
			"nodes":[
				0
			]
		}
	],
	"nodes":[
		{
			"mesh":0,
			"name":"Cylinder",
			"translation":[
				0,
				1.8537765741348267,
				0
			]
		}
	],
	"meshes":[
		{
			"name":"Cylinder.001",
			"primitives":[
				{
					"attributes":{
						"POSITION":0,
						"NORMAL":1,
						"TEXCOORD_0":2
					},
					"indices":3
				}
			]
		}
	],
	"accessors":[
		{
			"bufferView":0,
			"componentType":5126,
			"count":466,
			"max":[
				0.2551656663417816,
				0.04682218283414841,
				0.25516563653945923
			],
			"min":[
				-0.2551656663417816,
				-0.08175883442163467,
				-0.25516563653945923
			],
			"type":"VEC3"
		},
		{
			"bufferView":1,
			"componentType":5126,
			"count":466,
			"type":"VEC3"
		},
		{
			"bufferView":2,
			"componentType":5126,
			"count":466,
			"type":"VEC2"
		},
		{
			"bufferView":3,
			"componentType":5123,
			"count":1332,
			"type":"SCALAR"
		}
	],
	"bufferViews":[
		{
			"buffer":0,
			"byteLength":5592,
			"byteOffset":0,
			"target":34962
		},
		{
			"buffer":0,
			"byteLength":5592,
			"byteOffset":5592,
			"target":34962
		},
		{
			"buffer":0,
			"byteLength":3728,
			"byteOffset":11184,
			"target":34962
		},
		{
			"buffer":0,
			"byteLength":2664,
			"byteOffset":14912,
			"target":34963
		}
	],
	"buffers":[
		{
			"byteLength":17576,
			"uri":"Cylinder.bin"
		}
	]
}
