{
	"asset":{
		"generator":"Khronos glTF Blender I/O v4.4.56",
		"version":"2.0"
	},
	"scene":0,
	"scenes":[
		{
			"name":"Scene",
			"nodes":[
				1
			]
		}
	],
	"nodes":[
		{
			"mesh":0,
			"name":"Cylinder",
			"translation":[
				0,
				0.1375257968902588,
				0
			]
		},
		{
			"children":[
				0
			],
			"mesh":1,
			"name":"head",
			"translation":[
				0,
				1.7162507772445679,
				0
			]
		}
	],
	"meshes":[
		{
			"name":"Cylinder.001",
			"primitives":[
				{
					"attributes":{
						"POSITION":0,
						"NORMAL":1,
						"TEXCOORD_0":2
					},
					"indices":3
				}
			]
		},
		{
			"name":"Cube.008",
			"primitives":[
				{
					"attributes":{
						"POSITION":4,
						"NORMAL":5,
						"TEXCOORD_0":6
					},
					"indices":7
				}
			]
		}
	],
	"accessors":[
		{
			"bufferView":0,
			"componentType":5126,
			"count":466,
			"max":[
				0.2551656663417816,
				0.04682218283414841,
				0.25516563653945923
			],
			"min":[
				-0.2551656663417816,
				-0.08175883442163467,
				-0.25516563653945923
			],
			"type":"VEC3"
		},
		{
			"bufferView":1,
			"componentType":5126,
			"count":466,
			"type":"VEC3"
		},
		{
			"bufferView":2,
			"componentType":5126,
			"count":466,
			"type":"VEC2"
		},
		{
			"bufferView":3,
			"componentType":5123,
			"count":1332,
			"type":"SCALAR"
		},
		{
			"bufferView":4,
			"componentType":5126,
			"count":358,
			"max":[
				0.11185440421104431,
				0.1326819807291031,
				0.11185440421104431
			],
			"min":[
				-0.11185440421104431,
				-0.17350700497627258,
				-0.11185440421104431
			],
			"type":"VEC3"
		},
		{
			"bufferView":5,
			"componentType":5126,
			"count":358,
			"type":"VEC3"
		},
		{
			"bufferView":6,
			"componentType":5126,
			"count":358,
			"type":"VEC2"
		},
		{
			"bufferView":7,
			"componentType":5123,
			"count":1728,
			"type":"SCALAR"
		}
	],
	"bufferViews":[
		{
			"buffer":0,
			"byteLength":5592,
			"byteOffset":0,
			"target":34962
		},
		{
			"buffer":0,
			"byteLength":5592,
			"byteOffset":5592,
			"target":34962
		},
		{
			"buffer":0,
			"byteLength":3728,
			"byteOffset":11184,
			"target":34962
		},
		{
			"buffer":0,
			"byteLength":2664,
			"byteOffset":14912,
			"target":34963
		},
		{
			"buffer":0,
			"byteLength":4296,
			"byteOffset":17576,
			"target":34962
		},
		{
			"buffer":0,
			"byteLength":4296,
			"byteOffset":21872,
			"target":34962
		},
		{
			"buffer":0,
			"byteLength":2864,
			"byteOffset":26168,
			"target":34962
		},
		{
			"buffer":0,
			"byteLength":3456,
			"byteOffset":29032,
			"target":34963
		}
	],
	"buffers":[
		{
			"byteLength":32488,
			"uri":"head.bin"
		}
	]
}
