{
	"asset":{
		"generator":"Khronos glTF Blender I/O v4.4.56",
		"version":"2.0"
	},
	"scene":0,
	"scenes":[
		{
			"name":"Scene",
			"nodes":[
				0
			]
		}
	],
	"nodes":[
		{
			"mesh":0,
			"name":"hitbox_shapeonly_rigid",
			"rotation":[
				0,
				1,
				0,
				7.549790126404332e-08
			]
		}
	],
	"meshes":[
		{
			"name":"Cube.001",
			"primitives":[
				{
					"attributes":{
						"POSITION":0,
						"NORMAL":1,
						"TEXCOORD_0":2
					},
					"indices":3
				}
			]
		}
	],
	"accessors":[
		{
			"bufferView":0,
			"componentType":5126,
			"count":145,
			"max":[
				0.4000000059604645,
				2,
				0.4000000059604645
			],
			"min":[
				-0.4000000059604645,
				0,
				-0.4000000059604645
			],
			"type":"VEC3"
		},
		{
			"bufferView":1,
			"componentType":5126,
			"count":145,
			"type":"VEC3"
		},
		{
			"bufferView":2,
			"componentType":5126,
			"count":145,
			"type":"VEC2"
		},
		{
			"bufferView":3,
			"componentType":5123,
			"count":564,
			"type":"SCALAR"
		}
	],
	"bufferViews":[
		{
			"buffer":0,
			"byteLength":1740,
			"byteOffset":0,
			"target":34962
		},
		{
			"buffer":0,
			"byteLength":1740,
			"byteOffset":1740,
			"target":34962
		},
		{
			"buffer":0,
			"byteLength":1160,
			"byteOffset":3480,
			"target":34962
		},
		{
			"buffer":0,
			"byteLength":1128,
			"byteOffset":4640,
			"target":34963
		}
	],
	"buffers":[
		{
			"byteLength":5768,
			"uri":"hitbox_shapeonly_rigid.bin"
		}
	]
}
