{
	"asset":{
		"generator":"Khronos glTF Blender I/O v4.5.48",
		"version":"2.0"
	},
	"scene":0,
	"scenes":[
		{
			"name":"Scene",
			"nodes":[
				1
			]
		}
	],
	"nodes":[
		{
			"mesh":0,
			"name":"Cylinder"
		},
		{
			"children":[
				0
			],
			"mesh":1,
			"name":"Icosphere",
			"translation":[
				0,
				0.6000007390975952,
				0
			]
		}
	],
	"materials":[
		{
			"doubleSided":true,
			"name":"Metal",
			"pbrMetallicRoughness":{
				"baseColorFactor":[
					0.800000011920929,
					0.800000011920929,
					0.800000011920929,
					1
				],
				"roughnessFactor":0.2870370149612427
			}
		},
		{
			"doubleSided":true,
			"name":"Material.002",
			"pbrMetallicRoughness":{
				"baseColorFactor":[
					0.8002356290817261,
					0.0390770360827446,
					0,
					1
				],
				"metallicFactor":0,
				"roughnessFactor":0.5
			}
		},
		{
			"doubleSided":true,
			"name":"Material",
			"pbrMetallicRoughness":{
				"baseColorFactor":[
					0.4974215030670166,
					0.4974215030670166,
					0.4974215030670166,
					1
				],
				"roughnessFactor":0.24074074625968933
			}
		}
	],
	"meshes":[
		{
			"name":"Cylinder.002",
			"primitives":[
				{
					"attributes":{
						"POSITION":0,
						"NORMAL":1,
						"TEXCOORD_0":2
					},
					"indices":3,
					"material":0
				},
				{
					"attributes":{
						"POSITION":4,
						"NORMAL":5,
						"TEXCOORD_0":6
					},
					"indices":7,
					"material":1
				}
			]
		},
		{
			"name":"Icosphere",
			"primitives":[
				{
					"attributes":{
						"POSITION":8,
						"NORMAL":9,
						"TEXCOORD_0":10
					},
					"indices":11,
					"material":2
				}
			]
		}
	],
	"accessors":[
		{
			"bufferView":0,
			"componentType":5126,
			"count":928,
			"max":[
				-0.009025231003761292,
				0.10184657573699951,
				0.10437879711389542
			],
			"min":[
				-0.447673499584198,
				-0.10184657573699951,
				-0.10437879711389542
			],
			"type":"VEC3"
		},
		{
			"bufferView":1,
			"componentType":5126,
			"count":928,
			"type":"VEC3"
		},
		{
			"bufferView":2,
			"componentType":5126,
			"count":928,
			"type":"VEC2"
		},
		{
			"bufferView":3,
			"componentType":5123,
			"count":2712,
			"type":"SCALAR"
		},
		{
			"bufferView":4,
			"componentType":5126,
			"count":48,
			"max":[
				-0.14227426052093506,
				0.08768744766712189,
				0.09021971374750137
			],
			"min":[
				-0.14227436482906342,
				-0.08768744766712189,
				-0.09021971374750137
			],
			"type":"VEC3"
		},
		{
			"bufferView":5,
			"componentType":5126,
			"count":48,
			"type":"VEC3"
		},
		{
			"bufferView":6,
			"componentType":5126,
			"count":48,
			"type":"VEC2"
		},
		{
			"bufferView":7,
			"componentType":5123,
			"count":120,
			"type":"SCALAR"
		},
		{
			"bufferView":8,
			"componentType":5126,
			"count":111,
			"max":[
				0.3956684470176697,
				0.399501770734787,
				0.39420002698898315
			],
			"min":[
				-0.3335322141647339,
				-0.3885442018508911,
				-0.39420002698898315
			],
			"type":"VEC3"
		},
		{
			"bufferView":9,
			"componentType":5126,
			"count":111,
			"type":"VEC3"
		},
		{
			"bufferView":10,
			"componentType":5126,
			"count":111,
			"type":"VEC2"
		},
		{
			"bufferView":11,
			"componentType":5123,
			"count":312,
			"type":"SCALAR"
		}
	],
	"bufferViews":[
		{
			"buffer":0,
			"byteLength":11136,
			"byteOffset":0,
			"target":34962
		},
		{
			"buffer":0,
			"byteLength":11136,
			"byteOffset":11136,
			"target":34962
		},
		{
			"buffer":0,
			"byteLength":7424,
			"byteOffset":22272,
			"target":34962
		},
		{
			"buffer":0,
			"byteLength":5424,
			"byteOffset":29696,
			"target":34963
		},
		{
			"buffer":0,
			"byteLength":576,
			"byteOffset":35120,
			"target":34962
		},
		{
			"buffer":0,
			"byteLength":576,
			"byteOffset":35696,
			"target":34962
		},
		{
			"buffer":0,
			"byteLength":384,
			"byteOffset":36272,
			"target":34962
		},
		{
			"buffer":0,
			"byteLength":240,
			"byteOffset":36656,
			"target":34963
		},
		{
			"buffer":0,
			"byteLength":1332,
			"byteOffset":36896,
			"target":34962
		},
		{
			"buffer":0,
			"byteLength":1332,
			"byteOffset":38228,
			"target":34962
		},
		{
			"buffer":0,
			"byteLength":888,
			"byteOffset":39560,
			"target":34962
		},
		{
			"buffer":0,
			"byteLength":624,
			"byteOffset":40448,
			"target":34963
		}
	],
	"buffers":[
		{
			"byteLength":41072,
			"uri":"Icosphere.bin"
		}
	]
}
