{
	"asset":{
		"generator":"Khronos glTF Blender I/O v4.5.48",
		"version":"2.0"
	},
	"scene":0,
	"scenes":[
		{
			"name":"Scene",
			"nodes":[
				3
			]
		}
	],
	"nodes":[
		{
			"name":"Bone",
			"translation":[
				0,
				-3.725290298461914e-08,
				0
			]
		},
		{
			"name":"Bone.001",
			"translation":[
				0,
				1,
				0
			]
		},
		{
			"mesh":0,
			"name":"Cylinder",
			"skin":0
		},
		{
			"children":[
				2,
				0,
				1
			],
			"name":"Armature"
		}
	],
	"meshes":[
		{
			"name":"Cylinder.001",
			"primitives":[
				{
					"attributes":{
						"POSITION":0,
						"NORMAL":1,
						"TEXCOORD_0":2,
						"JOINTS_0":3,
						"WEIGHTS_0":4
					},
					"indices":5
				}
			]
		}
	],
	"skins":[
		{
			"inverseBindMatrices":6,
			"joints":[
				0,
				1
			],
			"name":"Armature"
		}
	],
	"accessors":[
		{
			"bufferView":0,
			"componentType":5126,
			"count":152,
			"max":[
				0.20000000298023224,
				1.0000007152557373,
				0.20000001788139343
			],
			"min":[
				-0.20000003278255463,
				7.152557373046875e-07,
				-0.20000001788139343
			],
			"type":"VEC3"
		},
		{
			"bufferView":1,
			"componentType":5126,
			"count":152,
			"type":"VEC3"
		},
		{
			"bufferView":2,
			"componentType":5126,
			"count":152,
			"type":"VEC2"
		},
		{
			"bufferView":3,
			"componentType":5121,
			"count":152,
			"type":"VEC4"
		},
		{
			"bufferView":4,
			"componentType":5126,
			"count":152,
			"type":"VEC4"
		},
		{
			"bufferView":5,
			"componentType":5123,
			"count":372,
			"type":"SCALAR"
		},
		{
			"bufferView":6,
			"componentType":5126,
			"count":2,
			"type":"MAT4"
		}
	],
	"bufferViews":[
		{
			"buffer":0,
			"byteLength":1824,
			"byteOffset":0,
			"target":34962
		},
		{
			"buffer":0,
			"byteLength":1824,
			"byteOffset":1824,
			"target":34962
		},
		{
			"buffer":0,
			"byteLength":1216,
			"byteOffset":3648,
			"target":34962
		},
		{
			"buffer":0,
			"byteLength":608,
			"byteOffset":4864,
			"target":34962
		},
		{
			"buffer":0,
			"byteLength":2432,
			"byteOffset":5472,
			"target":34962
		},
		{
			"buffer":0,
			"byteLength":744,
			"byteOffset":7904,
			"target":34963
		},
		{
			"buffer":0,
			"byteLength":128,
			"byteOffset":8648
		}
	],
	"buffers":[
		{
			"byteLength":8776,
			"uri":"Armature.bin"
		}
	]
}
