{
	"asset":{
		"generator":"Khronos glTF Blender I/O v4.5.48",
		"version":"2.0"
	},
	"scene":0,
	"scenes":[
		{
			"name":"Scene",
			"nodes":[
				0
			]
		}
	],
	"nodes":[
		{
			"mesh":0,
			"name":"Hat",
			"rotation":[
				0,
				-0.7071067094802856,
				0,
				0.7071068286895752
			],
			"translation":[
				0,
				4.215328693389893,
				0
			]
		}
	],
	"meshes":[
		{
			"name":"Cylinder",
			"primitives":[
				{
					"attributes":{
						"POSITION":0,
						"NORMAL":1,
						"TEXCOORD_0":2
					},
					"indices":3
				}
			]
		}
	],
	"accessors":[
		{
			"bufferView":0,
			"componentType":5126,
			"count":210,
			"max":[
				0.8438450694084167,
				-0.24970126152038574,
				0.8414028286933899
			],
			"min":[
				-0.8415666818618774,
				-0.6549535393714905,
				-0.8440088629722595
			],
			"type":"VEC3"
		},
		{
			"bufferView":1,
			"componentType":5126,
			"count":210,
			"type":"VEC3"
		},
		{
			"bufferView":2,
			"componentType":5126,
			"count":210,
			"type":"VEC2"
		},
		{
			"bufferView":3,
			"componentType":5123,
			"count":756,
			"type":"SCALAR"
		}
	],
	"bufferViews":[
		{
			"buffer":0,
			"byteLength":2520,
			"byteOffset":0,
			"target":34962
		},
		{
			"buffer":0,
			"byteLength":2520,
			"byteOffset":2520,
			"target":34962
		},
		{
			"buffer":0,
			"byteLength":1680,
			"byteOffset":5040,
			"target":34962
		},
		{
			"buffer":0,
			"byteLength":1512,
			"byteOffset":6720,
			"target":34963
		}
	],
	"buffers":[
		{
			"byteLength":8232,
			"uri":"Hat.bin"
		}
	]
}
